<svg id="Capa_1" enable-background="new 0 0 512 512" height="512" viewBox="0 0 512 512" width="512" xmlns="http://www.w3.org/2000/svg"><g><path d="m181 512h180c8.284 0 15-6.716 15-15v-257.348c19.383-25.56 30-57.178 30-89.649 0-34.936 0-42.604 0-75.003 0-24.813-20.187-45-45-45-5.857 0-11.449 1.137-16.586 3.181-5.205-19.096-22.691-33.181-43.414-33.181-11.517 0-22.032 4.354-30 11.495-7.968-7.141-18.483-11.495-30-11.495s-22.032 4.354-30 11.495c-7.968-7.141-18.483-11.495-30-11.495-24.813 0-45 20.187-45 45v47.58c-17.459 6.192-30 22.865-30 42.42v15.003c0 47.435 22.285 91.712 60 120.012v226.985c0 8.284 6.716 15 15 15zm165-437c0-8.271 6.729-15 15-15s15 6.729 15 15v30c0 8.271-6.729 15-15 15s-15-6.729-15-15zm-60-30c0-8.271 6.729-15 15-15s15 6.729 15 15v60c0 8.271-6.729 15-15 15s-15-6.729-15-15zm-60 0c0-8.271 6.729-15 15-15s15 6.729 15 15v47.58c-4.695-1.665-9.742-2.58-15-2.58h-15zm-60 0c0-8.271 6.729-15 15-15s15 6.729 15 15v45h-30zm-30 105.003v-15.003c0-8.271 6.729-15 15-15h90c8.271 0 15 6.729 15 15s-6.729 15-15 15h-60c-8.284 0-15 6.716-15 15s6.716 15 15 15c31.739 0 60.166 20.093 70.736 49.999 2.76 7.812 11.333 11.907 19.141 9.144 7.811-2.761 11.904-11.331 9.145-19.141-5.723-16.189-15.184-30.327-27.202-41.576 15.329-4.177 27.419-16.277 31.597-31.605 5.136 2.044 10.728 3.18 16.583 3.18 11.517 0 22.032-4.354 30-11.495 7.968 7.142 18.483 11.495 30 11.495 5.259 0 10.305-.915 15-2.58v2.583c0 27.405-9.446 54.019-26.6 74.939-2.199 2.682-3.4 6.042-3.4 9.511v247.546h-150v-219.731c0-5.005-2.497-9.681-6.656-12.465-33.402-22.36-53.344-59.669-53.344-99.801z"/></g></svg>