<svg id="_x31_" enable-background="new 0 0 24 24" height="512" viewBox="0 0 24 24" width="512" xmlns="http://www.w3.org/2000/svg"><g><g><path d="m16.013 23.91c-.089 0-.179-.023-.26-.072-.235-.144-.311-.451-.168-.688.041-.066 4.044-6.757 4.401-14.958.009-.185-.057-.359-.183-.492-.122-.127-.254-.171-.462-.197-.296 0-.537.171-.627.428l-1.659 4.707c-.087.243-.341.38-.594.319-.25-.063-.412-.307-.372-.562l1.291-8.302c.066-.293.007-.56-.157-.767-.164-.207-.411-.326-.675-.326-.386 0-.728.26-.831.632l-1.714 8.379c-.053.253-.285.434-.549.396-.258-.03-.449-.253-.441-.513l.317-9.808c.028-.35-.103-.65-.358-.852-.256-.2-.578-.257-.888-.153-.363.121-.617.446-.647.828l-.424 10.022c-.012.26-.221.469-.481.479-.249-.024-.485-.184-.516-.442l-.98-8.379c-.038-.223-.186-.435-.404-.558-.219-.123-.477-.137-.708-.047-.356.144-.565.509-.508.89l1.081 9.57c.024.216-.095.424-.293.513-.202.089-.433.038-.578-.125l-2.761-3.105c-.183-.206-.436-.32-.71-.323-.268.025-.529.108-.716.312-.232.255-.312.615-.208.94.465 1.439 1.659 5.015 2.716 7.12 1.547 3.084 2.458 4.324 2.467 4.337.164.222.118.534-.104.699-.221.165-.532.119-.699-.103-.038-.052-.963-1.307-2.559-4.484-1.048-2.09-2.188-5.447-2.772-7.263-.215-.666-.054-1.402.422-1.923.371-.404.898-.636 1.445-.636.005 0 .01 0 .016.001.554.004 1.082.244 1.45.658l1.713 1.927-.901-7.984c-.126-.823.337-1.632 1.128-1.948.512-.206 1.085-.169 1.569.103.482.271.812.741.903 1.288l.254 2.168.159-3.767c.062-.801.583-1.469 1.329-1.718.625-.208 1.305-.09 1.821.315.518.406.794 1.041.739 1.696l-.126 3.907.543-2.653c.233-.835.971-1.396 1.804-1.396.571 0 1.103.257 1.458.704s.485 1.022.356 1.579l-.476 3.06c.286-.514.869-.843 1.439-.84.474.002.892.183 1.201.508.312.326.479.772.459 1.225-.37 8.467-4.376 15.153-4.546 15.435-.093.153-.257.239-.426.239z"/></g></g></svg>