<?xml version="1.0" encoding="iso-8859-1"?>
<!-- Generator: Adobe Illustrator 19.0.0, SVG Export Plug-In . SVG Version: 6.00 Build 0)  -->
<svg version="1.1" id="Capa_1" xmlns="http://www.w3.org/2000/svg" xmlns:xlink="http://www.w3.org/1999/xlink" x="0px" y="0px"
	 viewBox="0 0 512 512" style="enable-background:new 0 0 512 512;" xml:space="preserve">
<g>
	<g>
		<path d="M391.59,170.667c-23.531,0-42.667,19.136-42.667,42.667V288c0,23.531,19.136,42.667,42.667,42.667
			c7.765,0,15.061-2.091,21.333-5.739v40.853c0,68.864-56,124.885-124.885,124.885H240.87c-18.389,0-36.779-4.352-53.227-12.587
			c-33.301-16.661-57.152-48.469-63.808-85.12l-8.981-49.216c-0.384-2.24-0.597-4.523-0.597-6.805
			c0-17.579,11.947-32.683,29.056-36.693l134.229-31.573c1.621,8.832,0.533,17.941-3.243,26.347
			c-4.992,11.221-14.123,19.712-25.664,23.915l-45.973,16.725c-7.275,2.645-13.077,8.277-15.957,15.467
			c-2.859,7.189-2.496,15.253,0.96,22.165l13.056,26.133c2.645,5.291,9.024,7.381,14.315,4.779
			c5.269-2.645,7.403-9.045,4.779-14.315l-13.056-26.155c-1.024-2.005-0.576-3.819-0.213-4.715c0.341-0.917,1.259-2.539,3.413-3.328
			l45.973-16.725c17.003-6.187,30.443-18.688,37.845-35.221c7.403-16.533,7.765-34.901,1.045-51.712
			c-1.963-4.907-7.189-7.573-12.331-6.421l-144.043,33.899c-26.816,6.293-45.525,29.909-45.525,57.451
			c0,3.52,0.341,7.04,0.939,10.581l8.981,49.28c7.851,43.2,35.989,80.747,75.264,100.373C197.478,506.88,219.174,512,240.849,512
			h47.168c80.64,0,146.24-65.6,146.24-146.219V213.333C434.257,189.803,415.121,170.667,391.59,170.667z M412.924,288
			c0,11.755-9.557,21.333-21.333,21.333s-21.333-9.579-21.333-21.333v-74.667c0-11.755,9.557-21.333,21.333-21.333
			s21.333,9.579,21.333,21.333V288z"/>
	</g>
</g>
<g>
	<g>
		<path d="M370.257,213.333v-42.667c0-23.531-19.136-42.667-42.667-42.667c-23.531,0-42.667,19.136-42.667,42.667v106.667
			c0,23.531,19.136,42.667,42.667,42.667c23.509,0,42.667-19.136,42.667-42.667v-42.667c0-5.888-4.779-10.667-10.667-10.667
			s-10.667,4.779-10.667,10.667v42.667c0,11.755-9.557,21.333-21.333,21.333s-21.333-9.579-21.333-21.333V170.667
			c0-11.755,9.557-21.333,21.333-21.333s21.333,9.579,21.333,21.333v42.667c0,5.888,4.779,10.667,10.667,10.667
			S370.257,219.221,370.257,213.333z"/>
	</g>
</g>
<g>
	<g>
		<path d="M261.99,0c-22.848,0-41.771,17.131-44.096,40.512l-5.931,158.549L160.06,82.688
			c-4.928-11.285-14.507-19.947-26.261-23.701c-11.755-3.733-24.597-2.261-35.157,4.096c-17.131,10.261-24.896,30.72-18.88,49.771
			l56.32,178.347c1.451,4.565,5.632,7.467,10.176,7.467c1.067,0,2.155-0.149,3.221-0.491c5.611-1.771,8.725-7.765,6.955-13.376
			l-56.341-178.368c-3.029-9.579,0.896-19.883,9.493-25.067c5.333-3.2,11.819-3.947,17.707-2.048
			c5.931,1.899,10.752,6.229,13.248,11.989l59.861,134.208c3.2,7.189,10.773,11.072,18.581,9.643
			c7.744-1.515,13.291-8.064,13.589-15.893l6.613-177.301c1.173-11.755,10.965-20.629,22.805-20.629
			c12.651,0,22.933,10.283,22.933,22.933v126.4c0,5.888,4.779,10.667,10.667,10.667s10.667-4.779,10.667-10.667v-126.4
			C306.257,19.861,286.417,0,261.99,0z"/>
	</g>
</g>
<g>
</g>
<g>
</g>
<g>
</g>
<g>
</g>
<g>
</g>
<g>
</g>
<g>
</g>
<g>
</g>
<g>
</g>
<g>
</g>
<g>
</g>
<g>
</g>
<g>
</g>
<g>
</g>
<g>
</g>
</svg>
